#!OML:ASF F:\VICON\USERDATA\INSTALL\rory3\rory3.ASF
:FULLY-SPECIFIED
:DEGREES
3122
root 9.65991 17.8347 -1.83241 -537.589 -33.2178 -183.403
lowerback 12.521 2.34283 -0.791257
upperback 1.17398 2.91541 0.250594
thorax -5.83605 1.40954 0.207828
lowerneck -17.8599 2.41208 -10.3103
upperneck 37.6959 3.89649 3.14441
head 16.1893 -0.227071 3.68181
rclavicle 1.37161e-014 -1.19271e-015
rhumerus -35.5732 -16.7587 -73.4293
rradius 34.3142
rwrist 4.95201
rhand -20.0416 10.0182
rfingers 7.12502
rthumb 6.29963 -19.8682
lclavicle 1.37161e-014 -1.19271e-015
lhumerus -29.3835 0.45424 86.6105
lradius 31.1483
lwrist -4.54458
lhand -16.8682 24.005
lfingers 7.12502
lthumb 9.3625 53.7771
rfemur -5.29918 4.94395 3.10122
rtibia 32.8506
rfoot -11.8673 -11.0654
rtoes 7.63391
lfemur -6.55212 -1.99061 -19.1533
ltibia 22.7622
lfoot -13.0056 -10.695
ltoes -10.7649
3123
root 9.60003 17.8439 -1.79144 -537.727 -33.1613 -183.096
lowerback 12.5638 2.34821 -0.535347
upperback 1.14178 2.96196 0.299629
thorax -5.88393 1.42702 0.104868
lowerneck -17.863 2.3834 -10.393
upperneck 37.7778 3.81717 3.28323
head 16.2313 -0.260468 3.74577
rclavicle -2.8128e-014 2.82274e-014
rhumerus -35.5252 -16.7369 -73.6679
rradius 34.2407
rwrist 4.98652
rhand -20.7058 10.5724
rfingers 7.12502
rthumb 5.65844 -19.332
lclavicle -2.8128e-014 2.82274e-014
lhumerus -29.4697 -0.149237 86.6139
lradius 31.4048
lwrist -4.40718
lhand -16.9297 23.6929
lfingers 7.12502
lthumb 9.30321 53.4676
rfemur -5.76599 4.28333 3.74626
rtibia 33.7732
rfoot -12.543 -11.5155
rtoes 6.59455
lfemur -6.46688 -1.91198 -19.1277
ltibia 22.5319
lfoot -12.8244 -10.754
ltoes -10.2706
3124
root 9.54054 17.8517 -1.75256 -537.727 -33.126 -183.159
lowerback 12.6683 2.36018 -0.614722
upperback 1.12287 2.96478 0.282001
thorax -5.96528 1.42976 0.125692
lowerneck -17.9327 2.37069 -10.4486
upperneck 37.9509 3.77781 3.35749
head 16.3371 -0.292869 3.78795
rclavicle -3.61788e-014 -1.07344e-014
rhumerus -35.5706 -16.7871 -73.8832
rradius 34.4161
rwrist 5.34307
rhand -20.3565 10.5083
rfingers 7.12502
rthumb 5.99564 -19.3869
lclavicle -3.61788e-014 -1.07344e-014
lhumerus -29.4323 -0.414655 86.5651
lradius 31.4745
lwrist -4.50439
lhand -16.8275 23.2436
lfingers 7.12502
lthumb 9.4018 53.0139
rfemur -6.14835 3.52259 4.06217
rtibia 34.6605
rfoot -13.196 -11.6218
rtoes 5.47319
lfemur -6.35336 -1.93793 -19.4607
ltibia 22.4071
lfoot -12.7641 -10.6891
ltoes -10.3686
3125
root 9.48324 17.8629 -1.71577 -537.735 -33.0156 -183.179
lowerback 12.7132 2.33225 -0.744877
upperback 1.13885 2.90727 0.278822
thorax -5.97924 1.40402 0.20427
lowerneck -18.0535 2.39749 -10.4732
upperneck 38.0298 3.83453 3.36958
head 16.401 -0.279815 3.81297
rclavicle -5.22804e-014 7.95139e-015
rhumerus -35.5254 -16.4998 -74.332
rradius 34.654
rwrist 5.44537
rhand -19.9455 10.2856
rfingers 7.12502
rthumb 6.39246 -19.5979
lclavicle -5.22804e-014 7.95139e-015
lhumerus -29.4153 -0.65705 86.4379
lradius 31.6707
lwrist -4.44361
lhand -16.7823 23.0715
lfingers 7.12502
lthumb 9.44539 52.8398
rfemur -6.55116 2.94355 4.45598
rtibia 35.5337
rfoot -13.8736 -11.3016
rtoes 5.47231
lfemur -6.26094 -2.01399 -19.7588
ltibia 22.3188
lfoot -12.7458 -10.4752
ltoes -9.89562
3126
root 9.4279 17.8724 -1.67565 -537.845 -32.8892 -182.917
lowerback 12.7249 2.29028 -0.596551
upperback 1.13094 2.87582 0.332656
thorax -5.98904 1.38549 0.182408
lowerneck -18.0916 2.41886 -10.5629
upperneck 38.028 3.87731 3.44048
head 16.3996 -0.265408 3.86811
rclavicle 1.77912e-014 2.38542e-015
rhumerus -35.386 -16.1242 -74.7816
rradius 34.6703
rwrist 5.22295
rhand -20.1437 10.8075
rfingers 7.12502
rthumb 6.20113 -19.0818
lclavicle 1.77912e-014 2.38542e-015
lhumerus -29.4973 -1.26054 86.3979
lradius 31.9611
lwrist -4.13146
lhand -17.2058 23.1895
lfingers 7.12502
lthumb 9.03672 52.9759
rfemur -7.01385 2.34006 5.15433
rtibia 36.3901
rfoot -14.4231 -10.6687
rtoes 4.98508
lfemur -6.22011 -2.15431 -19.802
ltibia 22.2194
lfoot -12.6568 -10.1875
ltoes -9.10477
3127
root 9.37279 17.8806 -1.63506 -537.824 -32.7852 -182.859
lowerback 12.7354 2.29697 -0.535758
upperback 1.07797 2.8946 0.311733
thorax -6.04698 1.39392 0.121158
lowerneck -18.062 2.39878 -10.6841
upperneck 38.1074 3.81745 3.57369
head 16.4306 -0.298865 3.93868
rclavicle 4.88016e-014 -1.19271e-014
rhumerus -35.3884 -15.9644 -75.1045
rradius 34.6736
rwrist 5.24121
rhand -20.3646 11.5367
rfingers 7.12502
rthumb 5.98784 -18.3586
lclavicle 4.88016e-014 -1.19271e-014
lhumerus -29.5631 -1.83218 86.3463
lradius 32.1714
lwrist -3.87329
lhand -17.616 23.4349
lfingers 7.12502
lthumb 8.64095 53.2381
rfemur -7.51499 1.57885 5.66622
rtibia 37.2345
rfoot -14.9493 -9.64307
rtoes 4.11843
lfemur -6.2207 -2.36973 -20.0405
ltibia 22.1514
lfoot -12.5616 -9.81994
ltoes -9.14889
3128
root 9.31925 17.8897 -1.59937 -537.797 -32.6553 -182.854
lowerback 12.7213 2.31019 -0.591405
upperback 1.04194 2.90526 0.294435
thorax -6.07931 1.40119 0.131944
lowerneck -17.9488 2.37241 -10.7364
upperneck 38.098 3.74248 3.63328
head 16.4015 -0.331356 3.95653
rclavicle -7.7526e-014 1.15295e-014
rhumerus -35.4368 -15.8099 -75.4475
rradius 34.8174
rwrist 5.31509
rhand -20.1733 11.7429
rfingers 7.12502
rthumb 6.1725 -18.1472
lclavicle -7.7526e-014 1.15295e-014
lhumerus -29.5395 -1.89063 86.1378
lradius 32.2102
lwrist -3.86017
lhand -17.8135 23.6354
lfingers 7.12502
lthumb 8.45033 53.4464
rfemur -8.02553 0.893288 6.15477
rtibia 38.1092
rfoot -15.6707 -8.31576
rtoes 3.56528
lfemur -6.18483 -2.43445 -20.3093
ltibia 22.052
lfoot -12.5699 -9.52931
ltoes -9.27378
3129
root 9.26654 17.8942 -1.56788 -537.716 -32.5299 -182.936
lowerback 12.6533 2.29935 -0.632283
upperback 1.03353 2.87863 0.171108
thorax -6.04554 1.38828 0.0326738
lowerneck -17.877 2.3598 -10.5682
upperneck 38.0471 3.64768 3.63203
head 16.3696 -0.34268 3.90636
rclavicle -5.07398e-014 3.57812e-015
rhumerus -35.4022 -15.4792 -76.0253
rradius 35.0535
rwrist 5.14969
rhand -19.9363 11.4644
rfingers 7.12502
rthumb 6.40132 -18.4188
lclavicle -5.07398e-014 3.57812e-015
lhumerus -29.4198 -1.8089 85.7377
lradius 32.1527
lwrist -3.9916
lhand -17.9931 23.4973
lfingers 7.12502
lthumb 8.27704 53.3151
rfemur -8.52213 0.228822 6.59051
rtibia 39.0142
rfoot -16.5851 -6.90555
rtoes 2.49625
lfemur -6.1153 -2.48564 -20.6487
ltibia 21.9107
lfoot -12.5752 -9.24539
ltoes -9.35405
3130
root 9.21574 17.8929 -1.53903 -537.523 -32.3408 -183.354
lowerback 12.7102 2.31251 -0.874171
upperback 0.996184 2.84272 -0.115921
thorax -6.11354 1.37321 -0.129678
lowerneck -17.8702 2.42313 -10.2734
upperneck 38.1212 3.62287 3.62565
head 16.4129 -0.320067 3.8496
rclavicle 9.97402e-014 -1.15295e-014
rhumerus -35.469 -15.2009 -76.7235
rradius 35.2092
rwrist 5.24718
rhand -20.0607 11.5596
rfingers 7.12502
rthumb 6.2812 -18.3273
lclavicle 9.97402e-014 -1.15295e-014
lhumerus -29.4096 -1.88234 85.2298
lradius 32.2162
lwrist -3.90007
lhand -18.3102 23.0506
lfingers 7.12502
lthumb 7.97097 52.8803
rfemur -8.96588 -0.388409 6.7349
rtibia 39.935
rfoot -17.341 -5.39967
rtoes 0.624415
lfemur -5.97658 -2.52485 -21.2899
ltibia 21.8026
lfoot -12.5531 -9.00267
ltoes -9.3561
3131
root 9.17234 17.8889 -1.5104 -537.571 -32.1357 -183.428
lowerback 12.7035 2.35205 -1.03286
upperback 1.08349 2.86266 -0.193361
thorax -6.02146 1.38376 -0.122642
lowerneck -17.9771 2.45178 -10.1679
upperneck 38.1477 3.64797 3.62144
head 16.4524 -0.295944 3.83819
rclavicle -3.19546e-014 3.18055e-015
rhumerus -35.3059 -14.8214 -77.3269
rradius 35.2296
rwrist 5.39852
rhand -20.3339 12.0453
rfingers 7.12502
rthumb 6.01744 -17.8493
lclavicle -3.19546e-014 3.18055e-015
lhumerus -29.2269 -1.68891 84.8472
lradius 32.3352
lwrist -3.76296
lhand -18.3027 23.0545
lfingers 7.12502
lthumb 7.97821 52.8839
rfemur -9.36529 -0.870654 7.27621
rtibia 40.8092
rfoot -18.0045 -3.7243
rtoes -1.24494
lfemur -5.85608 -2.46972 -21.5609
ltibia 21.7929
lfoot -12.5118 -8.90414
ltoes -8.93168
3132
root 9.13269 17.8834 -1.47842 -537.565 -32.0637 -183.425
lowerback 12.7023 2.3814 -1.23168
upperback 1.087 2.87552 -0.157416
thorax -6.02912 1.39541 0.0245367
lowerneck -18.0261 2.4267 -10.3106
upperneck 38.194 3.59882 3.78941
head 16.4831 -0.316897 3.93217
rclavicle -1.2424e-015 3.18055e-015
rhumerus -35.2204 -14.367 -77.7025
rradius 35.3537
rwrist 5.64295
rhand -20.3541 11.9475
rfingers 7.12502
rthumb 5.99798 -17.9476
lclavicle -1.2424e-015 3.18055e-015
lhumerus -29.0946 -1.36971 84.6278
lradius 32.3914
lwrist -3.67418
lhand -17.9521 23.459
lfingers 7.12502
lthumb 8.31655 53.2752
rfemur -9.78455 -1.51355 7.91307
rtibia 41.599
rfoot -18.7645 -1.73559
rtoes -2.18335
lfemur -5.92654 -2.41138 -21.7245
ltibia 21.9056
lfoot -12.4478 -8.99821
ltoes -7.93922
